<svg width="16" height="16" viewBox="0 0 16 16" fill="none" xmlns="http://www.w3.org/2000/svg">
<path d="M8.00001 13.3333C9.4145 13.3333 10.7711 12.7714 11.7712 11.7712C12.7714 10.7711 13.3333 9.4145 13.3333 8.00001C13.3333 6.58552 12.7714 5.22897 11.7712 4.22877C10.7711 3.22858 9.4145 2.66668 8.00001 2.66668C6.58552 2.66668 5.22897 3.22858 4.22877 4.22877C3.22858 5.22897 2.66668 6.58552 2.66668 8.00001C2.66668 9.4145 3.22858 10.7711 4.22877 11.7712C5.22897 12.7714 6.58552 13.3333 8.00001 13.3333ZM8.00001 1.33334C8.87549 1.33334 9.7424 1.50578 10.5512 1.84081C11.3601 2.17584 12.095 2.66691 12.7141 3.28596C13.3331 3.90502 13.8242 4.63995 14.1592 5.44879C14.4942 6.25762 14.6667 7.12453 14.6667 8.00001C14.6667 9.76812 13.9643 11.4638 12.7141 12.7141C11.4638 13.9643 9.76812 14.6667 8.00001 14.6667C4.31334 14.6667 1.33334 11.6667 1.33334 8.00001C1.33334 6.2319 2.03572 4.53621 3.28596 3.28596C4.53621 2.03572 6.2319 1.33334 8.00001 1.33334ZM8.33334 4.66668V8.16668L11.3333 9.94668L10.8333 10.7667L7.33334 8.66668V4.66668H8.33334Z" fill="black"/>
</svg>
