<svg width="16" height="16" viewBox="0 0 16 16" fill="none" xmlns="http://www.w3.org/2000/svg">
<path d="M2 14V12.6667H3.33333V2H10V2.66667H12.6667V12.6667H14V14H11.3333V4H10V14H2ZM7.33333 8.66667C7.52222 8.66667 7.68067 8.60267 7.80867 8.47467C7.93667 8.34667 8.00044 8.18844 8 8C8 7.81111 7.936 7.65267 7.808 7.52467C7.68 7.39667 7.52178 7.33289 7.33333 7.33333C7.14444 7.33333 6.986 7.39733 6.858 7.52533C6.73 7.65333 6.66622 7.81156 6.66667 8C6.66667 8.18889 6.73067 8.34733 6.85867 8.47533C6.98667 8.60333 7.14489 8.66711 7.33333 8.66667ZM4.66667 12.6667H8.66667V3.33333H4.66667V12.6667Z" fill="black"/>
</svg>
